<svg width="12" height="16" viewBox="0 0 12 16" fill="none" xmlns="http://www.w3.org/2000/svg">
<path d="M8.5 5.52959C8.5 4.73805 9.55278 4.52825 9.83209 5.26887C10.5077 7.06039 11 8.66304 11 9.52951C11 12.2909 8.76142 14.5295 6 14.5295C3.23858 14.5295 1 12.2909 1 9.52951C1 8.5986 1.56822 6.81796 2.32156 4.86628C3.29743 2.33809 3.78536 1.07399 4.38767 1.0059C4.5804 0.984114 4.79066 1.02328 4.96261 1.11301C5.5 1.39342 5.5 2.77214 5.5 5.52959C5.5 6.35801 6.17157 7.02959 7 7.02959C7.82843 7.02959 8.5 6.35801 8.5 5.52959Z" stroke="#282828"/>
</svg>
